# xmcd
#
# Track frame offsets:
# 150
# 26396
# 57725
# 80282
# 99121
# 123210
# 144015
# 165769
#
# Disc length: 2573 seconds
#
#
# Revision: 1
# Processed by: cddbd v1.5.1PL2 Copyright (c) Steve Scherf et al.
# Submitted via: FreeRIP 2.945 
#
DISCID=4e0a0b08
DTITLE=John Mayall - Life In The Jungle
DYEAR=1993
DGENRE=Blues
TTITLE0=Ridin' On The L&M
TTITLE1=Help Me
TTITLE2=All Your Love
TTITLE3=I Ain't Got You
TTITLE4=One Life To Live
TTITLE5=The Last Time
TTITLE6=Fascinating Lover
TTITLE7=Life In The Jungle
EXTD=Life in the Jungle: Charly Blues Masterworks 4 
EXTT0=
EXTT1=
EXTT2=
EXTT3=
EXTT4=
EXTT5=
EXTT6=
EXTT7=
PLAYORDER=
